<?xml version="1.0" encoding="UTF-8"?>
<svg xmlns="http://www.w3.org/2000/svg" version="1.1" viewBox="0 0 512 512">
  <defs>
    <style>
      .cls-1 {
        fill: #fff;
      }
    </style>
  </defs>
  <!-- Generator: Adobe Illustrator 28.7.2, SVG Export Plug-In . SVG Version: 1.2.0 Build 154)  -->
  <g>
    <g id="_圖層_1" data-name="圖層_1">
      <g id="Capa_1">
        <path class="cls-1" d="M291.9,256l159.7-159.7c9.9-9.9,9.9-26,0-35.9s-26-9.9-35.9,0h0l-159.7,159.7L96.3,60.4c-9.9-9.9-26-9.9-35.9,0s-9.9,26,0,35.9l159.7,159.7L60.4,415.7c-9.9,9.9-9.9,26,0,35.9s26,9.9,35.9,0l159.7-159.7,159.7,159.7c9.9,9.9,26,9.9,35.9,0s9.9-26,0-35.9l-159.7-159.7h0Z"/>
      </g>
    </g>
  </g>
</svg>